<?xml version="1.0" encoding="utf-8"?>
<svg xmlns="http://www.w3.org/2000/svg" width="1000" height="1000" viewBox="0 0 1000 1000">
  <rect x="36.278" y="115.387" width="1028.2" height="712.897" rx="140.55" ry="138.098" style="stroke-width: 5px; stroke: rgb(30, 30, 30); fill: rgb(221, 66, 136);"/>
  <rect x="126.922" y="437.523" width="225.16" height="91.4336" rx="0" ry="0" style="stroke-width: 5px; stroke: rgb(30, 30, 30); fill: rgb(81, 221, 0);"/>
  <circle cx="465.309" cy="471.824" r="153.64" style="stroke-width: 5px; stroke: rgb(30, 30, 30); fill: rgb(221, 206, 3);"/>
  <circle cx="771.615" cy="229.263" r="212.455" style="stroke-width: 5px; stroke: rgb(30, 30, 30); fill: rgb(168, 113, 220);"/>
  <polygon points="660.668 663.518 589.192 785.734 446.241 785.734 374.766 663.518 446.241 541.301 589.192 541.301 " style="stroke-width: 5px; stroke: rgb(30, 30, 30); fill: rgb(89, 215, 182);"/>
  <path style="fill: none; stroke-width: 5px; stroke: rgb(30, 30, 30);" d="M 686.16 265.98 C 686.16 265.943 686.065 265.939 686.16 265.754 C 686.255 265.569 686.442 265.212 686.73 264.871 C 687.019 264.53 687.433 264.288 687.891 263.707 C 688.348 263.126 688.938 261.988 689.477 261.383 C 690.016 260.777 690.749 260.395 691.125 260.074 C 691.501 259.754 691.419 259.848 691.734 259.461 C 692.049 259.074 692.701 258.137 693.016 257.75 C 693.331 257.363 693.422 257.341 693.625 257.137 C 693.828 256.932 694.082 256.728 694.234 256.523 C 694.387 256.319 694.387 256.115 694.539 255.91 C 694.691 255.706 695.003 255.444 695.148 255.297 C 695.294 255.15 695.319 255.174 695.414 255.027 C 695.509 254.88 695.566 254.568 695.719 254.414 C 695.871 254.26 696.182 254.202 696.328 254.105 C 696.474 254.009 696.505 253.926 696.594 253.836 C 696.682 253.746 696.771 253.656 696.859 253.566 C 696.948 253.477 697.03 253.444 697.125 253.297 C 697.22 253.15 697.277 252.888 697.43 252.684 C 697.582 252.479 697.836 252.275 698.039 252.07 C 698.242 251.866 698.445 251.661 698.648 251.457 C 698.852 251.253 699.041 251.12 699.258 250.844 C 699.475 250.568 699.549 250.26 699.949 249.801 C 700.349 249.342 701.27 248.477 701.656 248.09 C 702.042 247.702 702.062 247.681 702.266 247.477 C 702.469 247.272 702.6 247.081 702.875 246.863 C 703.15 246.645 703.639 246.386 703.914 246.168 C 704.189 245.95 704.32 245.759 704.523 245.555 C 704.727 245.35 704.987 245.089 705.133 244.941 C 705.279 244.794 705.31 244.762 705.398 244.672 C 705.487 244.582 705.576 244.447 705.664 244.402 C 705.753 244.357 705.784 244.454 705.93 244.402 C 706.076 244.351 706.336 244.197 706.539 244.094 C 706.742 243.991 706.945 243.888 707.148 243.785 C 707.352 243.682 707.555 243.579 707.758 243.477 C 707.961 243.374 708.164 243.219 708.367 243.168 C 708.57 243.117 708.773 243.219 708.977 243.168 C 709.18 243.117 709.383 242.911 709.586 242.859 C 709.789 242.808 709.992 242.911 710.195 242.859 C 710.398 242.808 710.659 242.602 710.805 242.551 C 710.951 242.499 710.924 242.551 711.07 242.551 C 711.216 242.551 711.534 242.551 711.68 242.551 C 711.826 242.551 711.857 242.551 711.945 242.551 C 712.034 242.551 712.122 242.551 712.211 242.551 C 712.299 242.551 712.388 242.551 712.477 242.551 C 712.565 242.551 712.654 242.551 712.742 242.551 C 712.831 242.551 712.919 242.551 713.008 242.551 C 713.096 242.551 713.056 242.551 713.273 242.551 C 713.491 242.551 714.038 242.551 714.312 242.551 C 714.587 242.551 714.719 242.551 714.922 242.551 C 715.125 242.551 715.328 242.551 715.531 242.551 C 715.734 242.551 715.938 242.551 716.141 242.551 C 716.344 242.551 716.604 242.551 716.75 242.551 C 716.896 242.551 716.927 242.551 717.016 242.551 C 717.104 242.551 717.193 242.551 717.281 242.551 C 717.37 242.551 717.458 242.551 717.547 242.551 C 717.635 242.551 717.724 242.551 717.812 242.551 C 717.901 242.551 717.99 242.551 718.078 242.551 C 718.167 242.551 718.255 242.551 718.344 242.551 C 718.432 242.551 718.524 242.51 718.609 242.551 C 718.695 242.592 718.773 242.715 718.855 242.797 C 718.938 242.879 719.016 242.958 719.102 243.043 C 719.187 243.128 719.221 243.214 719.367 243.309 C 719.513 243.404 719.773 243.512 719.977 243.613 C 720.18 243.715 720.383 243.816 720.586 243.918 C 720.789 244.02 720.992 244.121 721.195 244.223 C 721.398 244.324 721.659 244.477 721.805 244.527 C 721.951 244.578 721.924 244.477 722.07 244.527 C 722.216 244.578 722.534 244.737 722.68 244.832 C 722.826 244.927 722.857 245.053 722.945 245.098 C 723.034 245.142 723.122 245.053 723.211 245.098 C 723.299 245.142 723.388 245.319 723.477 245.363 C 723.565 245.408 723.654 245.319 723.742 245.363 C 723.831 245.408 723.923 245.544 724.008 245.629 C 724.093 245.714 724.172 245.793 724.254 245.875 C 724.336 245.957 724.357 246.029 724.5 246.121 C 724.643 246.213 724.906 246.324 725.109 246.426 C 725.312 246.527 725.516 246.629 725.719 246.73 C 725.922 246.832 726.125 246.934 726.328 247.035 C 726.531 247.137 726.792 247.245 726.938 247.34 C 727.083 247.435 727.057 247.51 727.203 247.605 C 727.349 247.701 727.667 247.815 727.812 247.91 C 727.958 248.005 727.99 248.087 728.078 248.176 C 728.167 248.264 728.255 248.353 728.344 248.441 C 728.432 248.53 728.521 248.663 728.609 248.707 C 728.698 248.751 728.786 248.663 728.875 248.707 C 728.964 248.751 729.052 248.928 729.141 248.973 C 729.229 249.017 729.318 248.973 729.406 248.973 C 729.495 248.973 729.583 248.928 729.672 248.973 C 729.76 249.017 729.849 249.15 729.938 249.238 C 730.026 249.327 730.115 249.415 730.203 249.504 C 730.292 249.592 730.323 249.674 730.469 249.77 C 730.615 249.865 730.875 249.973 731.078 250.074 C 731.281 250.176 731.542 250.284 731.688 250.379 C 731.833 250.474 731.807 250.549 731.953 250.645 C 732.099 250.74 732.417 250.854 732.562 250.949 C 732.708 251.044 732.74 251.126 732.828 251.215 C 732.917 251.303 733.005 251.436 733.094 251.48 C 733.182 251.525 733.271 251.48 733.359 251.48 C 733.448 251.48 733.536 251.436 733.625 251.48 C 733.714 251.525 733.802 251.702 733.891 251.746 C 733.979 251.79 734.068 251.702 734.156 251.746 C 734.245 251.79 734.333 251.923 734.422 252.012 C 734.51 252.1 734.599 252.233 734.688 252.277 C 734.776 252.322 734.807 252.227 734.953 252.277 C 735.099 252.328 735.417 252.487 735.562 252.582 C 735.708 252.677 735.74 252.759 735.828 252.848 C 735.917 252.936 735.948 253.069 736.094 253.113 C 736.24 253.158 736.557 253.113 736.703 253.113 C 736.849 253.113 736.88 253.069 736.969 253.113 C 737.057 253.158 737.146 253.335 737.234 253.379 C 737.323 253.423 737.411 253.379 737.5 253.379 C 737.589 253.379 737.677 253.379 737.766 253.379 C 737.854 253.379 737.987 253.338 738.031 253.379 C 738.076 253.42 737.992 253.584 738.031 253.625 C 738.071 253.666 738.191 253.625 738.27 253.625 C 738.348 253.625 738.425 253.625 738.504 253.625 C 738.583 253.625 738.663 253.625 738.742 253.625 C 738.822 253.625 738.9 253.625 738.98 253.625 C 739.061 253.625 739.141 253.625 739.227 253.625 C 739.312 253.625 739.346 253.625 739.492 253.625 C 739.638 253.625 739.956 253.625 740.102 253.625 C 740.247 253.625 740.279 253.67 740.367 253.625 C 740.456 253.58 740.544 253.445 740.633 253.355 C 740.721 253.266 740.81 253.131 740.898 253.086 C 740.987 253.041 741.076 253.131 741.164 253.086 C 741.253 253.041 741.341 252.861 741.43 252.816 C 741.518 252.771 741.607 252.861 741.695 252.816 C 741.784 252.771 741.917 252.633 741.961 252.547 C 742.005 252.46 741.92 252.38 741.961 252.297 C 742.002 252.214 742.166 252.13 742.207 252.047 C 742.248 251.964 742.207 251.88 742.207 251.797 C 742.207 251.714 742.207 251.633 742.207 251.547 C 742.207 251.46 742.163 251.367 742.207 251.277 C 742.251 251.188 742.378 251.155 742.473 251.008 C 742.568 250.861 742.682 250.542 742.777 250.395 C 742.872 250.247 742.897 250.272 743.043 250.125 C 743.189 249.978 743.507 249.659 743.652 249.512 C 743.798 249.365 743.829 249.332 743.918 249.242 C 744.007 249.152 744.089 249.12 744.184 248.973 C 744.279 248.826 744.336 248.513 744.488 248.359 C 744.641 248.206 744.952 248.147 745.098 248.051 C 745.243 247.954 745.275 247.871 745.363 247.781 C 745.452 247.691 745.54 247.602 745.629 247.512 C 745.717 247.422 745.806 247.332 745.895 247.242 C 745.983 247.152 746.072 247.062 746.16 246.973 C 746.249 246.883 746.337 246.748 746.426 246.703 C 746.514 246.658 746.603 246.748 746.691 246.703 C 746.78 246.658 746.868 246.523 746.957 246.434 C 747.046 246.344 747.128 246.311 747.223 246.164 C 747.318 246.017 747.432 245.698 747.527 245.551 C 747.622 245.404 747.704 245.371 747.793 245.281 C 747.882 245.191 747.913 245.108 748.059 245.012 C 748.204 244.915 748.522 244.755 748.668 244.703 C 748.814 244.652 748.845 244.748 748.934 244.703 C 749.022 244.658 749.111 244.479 749.199 244.434 C 749.288 244.389 749.376 244.479 749.465 244.434 C 749.553 244.389 749.645 244.209 749.73 244.164 C 749.816 244.119 749.936 244.206 749.977 244.164 C 750.018 244.122 749.936 243.956 749.977 243.914 C 750.018 243.872 750.141 243.914 750.223 243.914 C 750.305 243.914 750.387 243.914 750.469 243.914 C 750.551 243.914 750.63 243.959 750.715 243.914 C 750.8 243.869 750.892 243.689 750.98 243.645 C 751.069 243.6 751.1 243.696 751.246 243.645 C 751.392 243.593 751.71 243.387 751.855 243.336 C 752.001 243.285 751.904 243.394 752.121 243.336 C 752.339 243.278 752.943 243.046 753.16 242.988 C 753.378 242.93 753.28 242.988 753.426 242.988 C 753.572 242.988 753.832 242.988 754.035 242.988 C 754.238 242.988 754.499 242.988 754.645 242.988 C 754.79 242.988 754.764 242.988 754.91 242.988 C 755.056 242.988 755.374 242.988 755.52 242.988 C 755.665 242.988 755.697 242.988 755.785 242.988 C 755.874 242.988 755.962 242.988 756.051 242.988 C 756.139 242.988 756.228 242.988 756.316 242.988 C 756.405 242.988 756.497 242.988 756.582 242.988 C 756.667 242.988 756.746 242.988 756.828 242.988 C 756.91 242.988 756.992 242.988 757.074 242.988 C 757.156 242.988 757.235 242.988 757.32 242.988 C 757.406 242.988 757.44 242.988 757.586 242.988 C 757.732 242.988 757.992 242.988 758.195 242.988 C 758.398 242.988 758.659 242.988 758.805 242.988 C 758.951 242.988 758.924 242.988 759.07 242.988 C 759.216 242.988 759.534 242.988 759.68 242.988 C 759.826 242.988 759.857 242.944 759.945 242.988 C 760.034 243.033 760.122 243.21 760.211 243.254 C 760.299 243.298 760.388 243.21 760.477 243.254 C 760.565 243.298 760.654 243.475 760.742 243.52 C 760.831 243.564 760.919 243.475 761.008 243.52 C 761.096 243.564 761.185 243.741 761.273 243.785 C 761.362 243.829 761.393 243.734 761.539 243.785 C 761.685 243.836 761.945 243.988 762.148 244.09 C 762.352 244.191 762.612 244.299 762.758 244.395 C 762.904 244.49 762.878 244.616 763.023 244.66 C 763.169 244.704 763.487 244.616 763.633 244.66 C 763.779 244.704 763.81 244.837 763.898 244.926 C 763.987 245.014 764.018 245.096 764.164 245.191 C 764.31 245.286 764.628 245.445 764.773 245.496 C 764.919 245.547 764.893 245.445 765.039 245.496 C 765.185 245.547 765.445 245.699 765.648 245.801 C 765.852 245.902 766.055 246.004 766.258 246.105 C 766.461 246.207 766.721 246.315 766.867 246.41 C 767.013 246.505 766.987 246.581 767.133 246.676 C 767.279 246.771 767.539 246.879 767.742 246.98 C 767.945 247.082 768.148 247.184 768.352 247.285 C 768.555 247.387 768.758 247.488 768.961 247.59 C 769.164 247.691 769.424 247.799 769.57 247.895 C 769.716 247.99 769.69 248.065 769.836 248.16 C 769.982 248.255 770.299 248.414 770.445 248.465 C 770.591 248.516 770.622 248.465 770.711 248.465 C 770.799 248.465 770.888 248.465 770.977 248.465 C 771.065 248.465 771.154 248.421 771.242 248.465 C 771.331 248.509 771.425 248.686 771.508 248.73 C 771.59 248.775 771.661 248.73 771.738 248.73 C 771.816 248.73 771.895 248.73 771.973 248.73 C 772.051 248.73 772.128 248.73 772.207 248.73 C 772.286 248.73 772.366 248.73 772.445 248.73 C 772.525 248.73 772.603 248.73 772.684 248.73 C 772.764 248.73 772.844 248.73 772.93 248.73 C 773.015 248.73 773.107 248.73 773.195 248.73 C 773.284 248.73 773.372 248.73 773.461 248.73 C 773.549 248.73 773.581 248.782 773.727 248.73 C 773.872 248.679 774.19 248.473 774.336 248.422 C 774.482 248.37 774.513 248.422 774.602 248.422 C 774.69 248.422 774.779 248.467 774.867 248.422 C 774.956 248.377 775.044 248.197 775.133 248.152 C 775.221 248.107 775.31 248.197 775.398 248.152 C 775.487 248.107 775.576 247.928 775.664 247.883 C 775.753 247.838 775.885 247.928 775.93 247.883 C 775.974 247.838 775.885 247.658 775.93 247.613 C 775.974 247.568 776.151 247.655 776.195 247.613 C 776.24 247.572 776.151 247.405 776.195 247.363 C 776.24 247.322 776.417 247.408 776.461 247.363 C 776.505 247.318 776.417 247.139 776.461 247.094 C 776.505 247.049 776.632 247.196 776.727 247.094 C 776.822 246.992 776.936 246.628 777.031 246.48 C 777.126 246.333 777.151 246.307 777.297 246.211 C 777.443 246.115 777.76 245.999 777.906 245.902 C 778.052 245.806 778.026 245.729 778.172 245.633 C 778.318 245.536 778.635 245.421 778.781 245.324 C 778.927 245.228 778.958 245.145 779.047 245.055 C 779.135 244.965 779.224 244.83 779.312 244.785 C 779.401 244.74 779.49 244.83 779.578 244.785 C 779.667 244.74 779.755 244.561 779.844 244.516 C 779.932 244.471 780.021 244.561 780.109 244.516 C 780.198 244.471 780.291 244.331 780.375 244.246 C 780.459 244.161 780.523 244.146 780.613 244.004 C 780.704 243.861 780.766 243.544 780.918 243.391 C 781.07 243.237 781.382 243.178 781.527 243.082 C 781.673 242.986 781.647 242.96 781.793 242.812 C 781.939 242.665 782.257 242.346 782.402 242.199 C 782.548 242.052 782.579 242.02 782.668 241.93 C 782.757 241.84 782.845 241.75 782.934 241.66 C 783.022 241.57 783.111 241.48 783.199 241.391 C 783.288 241.301 783.376 241.166 783.465 241.121 C 783.553 241.076 783.642 241.166 783.73 241.121 C 783.819 241.076 783.908 240.896 783.996 240.852 C 784.085 240.807 784.217 240.893 784.262 240.852 C 784.306 240.81 784.217 240.688 784.262 240.602 C 784.306 240.515 784.382 240.428 784.527 240.332 C 784.673 240.236 784.991 240.12 785.137 240.023 C 785.283 239.927 785.257 239.901 785.402 239.754 C 785.548 239.607 785.809 239.294 786.012 239.141 C 786.215 238.987 786.418 238.986 786.621 238.832 C 786.824 238.678 787.027 238.372 787.23 238.219 C 787.434 238.065 787.637 238.013 787.84 237.91 C 788.043 237.807 788.303 237.698 788.449 237.602 C 788.595 237.505 788.569 237.428 788.715 237.332 C 788.861 237.236 789.178 237.12 789.324 237.023 C 789.47 236.927 789.501 236.844 789.59 236.754 C 789.678 236.664 789.767 236.529 789.855 236.484 C 789.944 236.439 790.036 236.484 790.121 236.484 C 790.206 236.484 790.285 236.484 790.367 236.484 C 790.449 236.484 790.528 236.529 790.613 236.484 C 790.699 236.439 790.79 236.26 790.879 236.215 C 790.967 236.17 791.056 236.26 791.145 236.215 C 791.233 236.17 791.264 235.99 791.41 235.945 C 791.556 235.9 791.874 235.99 792.02 235.945 C 792.165 235.9 792.197 235.721 792.285 235.676 C 792.374 235.631 792.405 235.727 792.551 235.676 C 792.697 235.624 793.014 235.419 793.16 235.367 C 793.306 235.316 793.337 235.367 793.426 235.367 C 793.514 235.367 793.603 235.367 793.691 235.367 C 793.78 235.367 793.868 235.412 793.957 235.367 C 794.046 235.322 794.134 235.143 794.223 235.098 C 794.311 235.053 794.403 235.098 794.488 235.098 C 794.574 235.098 794.652 235.098 794.734 235.098 C 794.816 235.098 794.895 235.098 794.98 235.098 C 795.066 235.098 795.158 235.098 795.246 235.098 C 795.335 235.098 795.423 235.143 795.512 235.098 C 795.6 235.053 795.689 234.873 795.777 234.828 C 795.866 234.783 795.954 234.828 796.043 234.828 C 796.132 234.828 796.22 234.828 796.309 234.828 C 796.397 234.828 796.486 234.828 796.574 234.828 C 796.663 234.828 796.751 234.873 796.84 234.828 C 796.928 234.783 797.017 234.604 797.105 234.559 C 797.194 234.514 797.286 234.559 797.371 234.559 C 797.456 234.559 797.538 234.559 797.617 234.559 C 797.697 234.559 797.771 234.559 797.848 234.559 C 797.924 234.559 798.001 234.559 798.078 234.559 C 798.155 234.559 798.27 234.559 798.309 234.559 "/>
  <path style="fill: none; stroke-width: 5px; stroke: rgb(30, 30, 30);" d="M 772.988 231.223 C 772.988 231.185 772.988 231.564 772.988 230.996 C 772.988 230.428 772.988 228.707 772.988 227.816 C 772.988 226.926 772.988 226.606 772.988 225.652 C 772.988 224.699 772.988 222.861 772.988 222.094 C 772.988 221.327 772.988 221.483 772.988 221.051 C 772.988 220.618 772.988 220.017 772.988 219.5 C 772.988 218.983 772.988 218.382 772.988 217.949 C 772.988 217.517 772.988 217.182 772.988 216.906 C 772.988 216.63 772.988 216.569 772.988 216.293 C 772.988 216.017 772.988 215.469 772.988 215.25 C 772.988 215.031 772.988 215.284 772.988 214.98 C 772.988 214.677 772.988 213.79 772.988 213.43 C 772.988 213.069 772.988 213.092 772.988 212.816 C 772.988 212.54 772.988 212.049 772.988 211.773 C 772.988 211.497 772.988 211.436 772.988 211.16 C 772.988 210.884 772.988 210.549 772.988 210.117 C 772.988 209.685 772.988 208.999 772.988 208.566 C 772.988 208.134 772.988 207.871 772.988 207.523 C 772.988 207.176 772.988 206.757 772.988 206.48 C 772.988 206.204 772.988 206.326 772.988 205.867 C 772.988 205.409 772.988 204.26 772.988 203.73 C 772.988 203.201 772.988 203.035 772.988 202.688 C 772.988 202.34 772.988 201.995 772.988 201.648 C 772.988 201.301 772.988 201.135 772.988 200.605 C 772.988 200.076 772.988 198.927 772.988 198.469 C 772.988 198.01 772.988 198.132 772.988 197.855 C 772.988 197.579 772.988 197.16 772.988 196.812 C 772.988 196.465 772.988 196.117 772.988 195.77 C 772.988 195.422 772.988 195.074 772.988 194.727 C 772.988 194.379 772.931 194.031 772.988 193.684 C 773.046 193.336 773.275 192.917 773.332 192.641 C 773.389 192.365 773.332 192.232 773.332 192.027 C 773.332 191.823 773.281 191.618 773.332 191.414 C 773.383 191.21 773.586 191.077 773.637 190.801 C 773.688 190.525 773.637 190.034 773.637 189.758 C 773.637 189.482 773.637 189.421 773.637 189.145 C 773.637 188.868 773.586 188.378 773.637 188.102 C 773.688 187.826 773.891 187.764 773.941 187.488 C 773.992 187.212 773.941 186.793 773.941 186.445 C 773.941 186.098 773.891 185.678 773.941 185.402 C 773.992 185.126 774.195 184.993 774.246 184.789 C 774.297 184.585 774.246 184.452 774.246 184.176 C 774.246 183.9 774.246 183.48 774.246 183.133 C 774.246 182.785 774.246 182.438 774.246 182.09 C 774.246 181.742 774.246 181.323 774.246 181.047 C 774.246 180.771 774.246 180.638 774.246 180.434 C 774.246 180.229 774.246 179.967 774.246 179.82 C 774.246 179.673 774.246 179.641 774.246 179.551 C 774.246 179.461 774.246 179.371 774.246 179.281 C 774.246 179.191 774.246 179.102 774.246 179.012 C 774.246 178.922 774.246 178.832 774.246 178.742 C 774.246 178.652 774.246 178.62 774.246 178.473 C 774.246 178.326 774.246 178.064 774.246 177.859 C 774.246 177.655 774.246 177.393 774.246 177.246 C 774.246 177.099 774.246 177.124 774.246 176.977 C 774.246 176.829 774.246 176.568 774.246 176.363 C 774.246 176.159 774.246 176.111 774.246 175.75 C 774.246 175.389 774.246 174.56 774.246 174.199 C 774.246 173.839 774.246 173.79 774.246 173.586 C 774.246 173.382 774.246 173.249 774.246 172.973 C 774.246 172.697 774.246 172.206 774.246 171.93 C 774.246 171.654 774.246 171.464 774.246 171.316 C 774.246 171.169 774.246 171.137 774.246 171.047 C 774.246 170.957 774.246 170.867 774.246 170.777 C 774.246 170.688 774.246 170.598 774.246 170.508 C 774.246 170.418 774.246 170.328 774.246 170.238 C 774.246 170.148 774.246 170.059 774.246 169.969 C 774.246 169.879 774.246 169.785 774.246 169.699 C 774.246 169.614 774.246 169.539 774.246 169.457 C 774.246 169.375 774.246 169.29 774.246 169.207 C 774.246 169.124 774.246 169.044 774.246 168.957 C 774.246 168.87 774.246 168.774 774.246 168.688 C 774.246 168.601 774.246 168.52 774.246 168.438 C 774.246 168.355 774.208 168.236 774.246 168.195 C 774.285 168.155 774.398 168.195 774.477 168.195 C 774.555 168.195 774.634 168.195 774.715 168.195 C 774.796 168.195 774.879 168.195 774.961 168.195 C 775.043 168.195 775.125 168.154 775.207 168.195 C 775.289 168.236 775.412 168.356 775.453 168.441 C 775.494 168.527 775.409 168.618 775.453 168.707 C 775.497 168.796 775.63 168.884 775.719 168.973 C 775.807 169.061 775.94 169.15 775.984 169.238 C 776.029 169.327 775.94 169.415 775.984 169.504 C 776.029 169.592 776.206 169.681 776.25 169.77 C 776.294 169.858 776.206 169.947 776.25 170.035 C 776.294 170.124 776.471 170.212 776.516 170.301 C 776.56 170.389 776.471 170.478 776.516 170.566 C 776.56 170.655 776.737 170.743 776.781 170.832 C 776.826 170.921 776.781 171.009 776.781 171.098 C 776.781 171.186 776.737 171.275 776.781 171.363 C 776.826 171.452 777.003 171.54 777.047 171.629 C 777.091 171.717 777.003 171.806 777.047 171.895 C 777.091 171.983 777.217 172.014 777.312 172.16 C 777.408 172.306 777.465 172.617 777.617 172.77 C 777.77 172.922 778.01 172.85 778.227 173.074 C 778.443 173.298 778.688 173.767 778.918 174.113 C 779.148 174.46 779.393 174.878 779.609 175.152 C 779.826 175.427 780.002 175.487 780.219 175.762 C 780.436 176.036 780.744 176.526 780.91 176.801 C 781.076 177.076 781.062 177.207 781.215 177.41 C 781.367 177.613 781.678 177.874 781.824 178.02 C 781.97 178.165 782.001 178.197 782.09 178.285 C 782.178 178.374 782.267 178.462 782.355 178.551 C 782.444 178.639 782.533 178.728 782.621 178.816 C 782.71 178.905 782.842 178.993 782.887 179.082 C 782.931 179.171 782.887 179.259 782.887 179.348 C 782.887 179.436 782.842 179.525 782.887 179.613 C 782.931 179.702 783.064 179.79 783.152 179.879 C 783.241 179.967 783.316 179.927 783.418 180.145 C 783.52 180.362 783.589 180.837 783.762 181.184 C 783.934 181.53 784.281 181.876 784.453 182.223 C 784.626 182.569 784.624 182.915 784.797 183.262 C 784.969 183.608 785.258 183.954 785.488 184.301 C 785.719 184.647 786.014 185.065 786.18 185.34 C 786.346 185.615 786.383 185.746 786.484 185.949 C 786.586 186.152 786.694 186.413 786.789 186.559 C 786.884 186.704 786.966 186.736 787.055 186.824 C 787.143 186.913 787.232 187.001 787.32 187.09 C 787.409 187.178 787.542 187.267 787.586 187.355 C 787.63 187.444 787.542 187.533 787.586 187.621 C 787.63 187.71 787.807 187.803 787.852 187.887 C 787.896 187.97 787.812 188.082 787.852 188.121 C 787.891 188.16 788.047 188.077 788.086 188.121 C 788.125 188.165 788.048 188.342 788.086 188.387 C 788.124 188.431 788.278 188.425 788.316 188.387 C 788.355 188.348 788.316 188.285 788.316 188.156 C 788.316 188.028 788.316 187.749 788.316 187.617 C 788.316 187.486 788.316 187.454 788.316 187.367 C 788.316 187.281 788.316 187.188 788.316 187.098 C 788.316 187.008 788.316 186.915 788.316 186.828 C 788.316 186.742 788.316 186.665 788.316 186.578 C 788.316 186.492 788.316 186.398 788.316 186.309 C 788.316 186.219 788.316 186.258 788.316 186.039 C 788.316 185.82 788.316 185.272 788.316 184.996 C 788.316 184.72 788.266 184.587 788.316 184.383 C 788.367 184.178 788.513 184.046 788.621 183.77 C 788.729 183.493 788.85 183.074 788.965 182.727 C 789.079 182.379 789.194 182.031 789.309 181.684 C 789.423 181.336 789.538 180.988 789.652 180.641 C 789.767 180.293 789.824 179.945 789.996 179.598 C 790.169 179.25 790.515 178.902 790.688 178.555 C 790.86 178.207 790.917 177.859 791.031 177.512 C 791.146 177.164 791.267 176.745 791.375 176.469 C 791.483 176.193 791.578 176.06 791.68 175.855 C 791.781 175.651 791.876 175.518 791.984 175.242 C 792.092 174.966 792.214 174.547 792.328 174.199 C 792.443 173.852 792.513 173.432 792.672 173.156 C 792.831 172.88 793.051 172.904 793.281 172.543 C 793.512 172.182 793.868 171.424 794.055 170.992 C 794.241 170.56 794.226 170.297 794.398 169.949 C 794.571 169.602 794.873 169.182 795.09 168.906 C 795.307 168.63 795.54 168.569 795.699 168.293 C 795.858 168.017 795.884 167.526 796.043 167.25 C 796.202 166.974 796.5 166.841 796.652 166.637 C 796.805 166.432 796.855 166.228 796.957 166.023 C 797.059 165.819 797.167 165.557 797.262 165.41 C 797.357 165.263 797.439 165.23 797.527 165.141 C 797.616 165.051 797.704 164.916 797.793 164.871 C 797.882 164.826 797.97 164.916 798.059 164.871 C 798.147 164.826 798.236 164.646 798.324 164.602 C 798.413 164.557 798.501 164.602 798.59 164.602 C 798.678 164.602 798.767 164.646 798.855 164.602 C 798.944 164.557 799.033 164.377 799.121 164.332 C 799.21 164.287 799.298 164.377 799.387 164.332 C 799.475 164.287 799.564 164.107 799.652 164.062 C 799.741 164.018 799.829 164.107 799.918 164.062 C 800.007 164.018 800.095 163.838 800.184 163.793 C 800.272 163.748 800.361 163.793 800.449 163.793 C 800.538 163.793 800.626 163.838 800.715 163.793 C 800.803 163.748 800.892 163.568 800.98 163.523 C 801.069 163.479 801.162 163.523 801.246 163.523 C 801.33 163.523 801.445 163.486 801.484 163.523 C 801.524 163.561 801.484 163.668 801.484 163.75 C 801.484 163.832 801.484 163.927 801.484 164.016 C 801.484 164.104 801.484 164.193 801.484 164.281 C 801.484 164.37 801.484 164.458 801.484 164.547 C 801.484 164.635 801.484 164.724 801.484 164.812 C 801.484 164.901 801.484 164.99 801.484 165.078 C 801.484 165.167 801.484 165.255 801.484 165.344 C 801.484 165.432 801.484 165.521 801.484 165.609 C 801.484 165.698 801.484 165.729 801.484 165.875 C 801.484 166.021 801.413 166.027 801.484 166.484 C 801.555 166.941 801.762 167.794 801.91 168.617 C 802.059 169.44 802.298 170.362 802.375 171.422 C 802.452 172.482 802.29 173.792 802.375 174.977 C 802.46 176.161 802.701 177.055 802.883 178.531 C 803.065 180.007 803.273 182.065 803.469 183.832 C 803.664 185.599 803.866 187.518 804.055 189.133 C 804.243 190.747 804.51 192.433 804.602 193.52 C 804.693 194.606 804.517 194.704 804.602 195.652 C 804.686 196.6 805.025 198.259 805.109 199.207 C 805.194 200.155 805.038 200.629 805.109 201.34 C 805.18 202.051 805.464 202.944 805.535 203.473 C 805.606 204.001 805.535 204.165 805.535 204.512 C 805.535 204.858 805.535 205.333 805.535 205.551 C 805.535 205.768 805.535 205.671 805.535 205.816 C 805.535 205.962 805.491 206.28 805.535 206.426 C 805.579 206.572 805.757 206.603 805.801 206.691 C 805.845 206.78 805.801 206.868 805.801 206.957 C 805.801 207.046 805.801 207.134 805.801 207.223 C 805.801 207.311 805.801 207.4 805.801 207.488 C 805.801 207.577 805.801 207.452 805.801 207.754 C 805.801 208.056 805.801 208.688 805.801 209.301 C 805.801 209.914 805.801 210.82 805.801 211.434 C 805.801 212.047 805.801 212.367 805.801 212.98 C 805.801 213.594 805.723 214.29 805.801 215.113 C 805.878 215.936 806.188 217.095 806.266 217.918 C 806.343 218.741 806.266 219.34 806.266 220.051 C 806.266 220.762 806.195 221.473 806.266 222.184 C 806.337 222.895 806.62 223.605 806.691 224.316 C 806.762 225.027 806.691 225.921 806.691 226.449 C 806.691 226.978 806.634 227.142 806.691 227.488 C 806.749 227.835 806.978 228.253 807.035 228.527 C 807.092 228.802 807.035 228.991 807.035 229.137 C 807.035 229.283 806.984 229.257 807.035 229.402 C 807.086 229.548 807.289 229.866 807.34 230.012 C 807.391 230.158 807.296 230.189 807.34 230.277 C 807.384 230.366 807.561 230.454 807.605 230.543 C 807.65 230.632 807.561 230.72 807.605 230.809 C 807.65 230.897 807.77 230.857 807.871 231.074 C 807.973 231.292 808.1 231.767 808.215 232.113 C 808.329 232.46 808.444 232.806 808.559 233.152 C 808.673 233.499 808.788 233.845 808.902 234.191 C 809.017 234.538 809.132 234.884 809.246 235.23 C 809.361 235.577 809.468 235.839 809.59 236.27 C 809.712 236.701 809.783 237.301 809.977 237.816 C 810.17 238.332 810.564 238.932 810.75 239.363 C 810.936 239.794 810.921 240.056 811.094 240.402 C 811.266 240.749 811.619 241.167 811.785 241.441 C 811.951 241.716 811.988 241.848 812.09 242.051 C 812.191 242.254 812.293 242.457 812.395 242.66 C 812.496 242.863 812.604 243.124 812.699 243.27 C 812.794 243.415 812.876 243.447 812.965 243.535 C 813.053 243.624 813.142 243.712 813.23 243.801 C 813.319 243.889 813.401 243.921 813.496 244.066 C 813.591 244.212 813.706 244.53 813.801 244.676 C 813.896 244.822 813.921 244.846 814.066 244.941 C 814.212 245.036 814.523 245.094 814.676 245.246 C 814.828 245.398 814.828 245.703 814.98 245.855 C 815.133 246.008 815.438 246.008 815.59 246.16 C 815.742 246.312 815.742 246.566 815.895 246.77 C 816.047 246.973 816.358 247.233 816.504 247.379 C 816.65 247.525 816.624 247.549 816.77 247.645 C 816.915 247.74 817.233 247.854 817.379 247.949 C 817.525 248.044 817.556 248.126 817.645 248.215 C 817.733 248.303 817.822 248.392 817.91 248.48 C 817.999 248.569 818.09 248.702 818.176 248.746 C 818.261 248.79 818.342 248.746 818.422 248.746 C 818.502 248.746 818.579 248.746 818.656 248.746 C 818.734 248.746 818.807 248.746 818.887 248.746 C 818.966 248.746 819.092 248.791 819.133 248.746 C 819.174 248.701 819.089 248.566 819.133 248.477 C 819.177 248.387 819.31 248.297 819.398 248.207 C 819.487 248.117 819.576 248.027 819.664 247.938 C 819.753 247.848 819.835 247.815 819.93 247.668 C 820.025 247.521 820.139 247.202 820.234 247.055 C 820.329 246.908 820.354 246.882 820.5 246.785 C 820.646 246.689 820.906 246.63 821.109 246.477 C 821.312 246.323 821.516 246.068 821.719 245.863 C 821.922 245.659 822.125 245.454 822.328 245.25 C 822.531 245.046 822.734 244.841 822.938 244.637 C 823.141 244.432 823.272 244.242 823.547 244.023 C 823.822 243.805 824.362 243.546 824.586 243.328 C 824.81 243.11 824.738 242.919 824.891 242.715 C 825.043 242.51 825.348 242.306 825.5 242.102 C 825.652 241.897 825.561 241.785 825.805 241.488 C 826.049 241.192 826.721 240.62 826.965 240.324 C 827.209 240.028 827.117 239.915 827.27 239.711 C 827.422 239.507 827.727 239.302 827.879 239.098 C 828.031 238.893 828.018 238.76 828.184 238.484 C 828.35 238.208 828.658 237.717 828.875 237.441 C 829.092 237.165 829.332 237.033 829.484 236.828 C 829.637 236.624 829.637 236.419 829.789 236.215 C 829.941 236.01 830.253 235.749 830.398 235.602 C 830.544 235.454 830.569 235.479 830.664 235.332 C 830.759 235.185 830.816 234.923 830.969 234.719 C 831.121 234.514 831.426 234.31 831.578 234.105 C 831.73 233.901 831.781 233.697 831.883 233.492 C 831.984 233.288 832.086 233.083 832.188 232.879 C 832.289 232.674 832.34 232.419 832.492 232.266 C 832.645 232.112 832.885 232.182 833.102 231.957 C 833.318 231.732 833.627 231.19 833.793 230.914 C 833.959 230.638 834.003 230.448 834.098 230.301 C 834.193 230.154 834.217 230.178 834.363 230.031 C 834.509 229.884 834.756 229.694 834.973 229.418 C 835.189 229.142 835.498 228.651 835.664 228.375 C 835.83 228.099 835.816 227.966 835.969 227.762 C 836.121 227.557 836.426 227.353 836.578 227.148 C 836.73 226.944 836.788 226.682 836.883 226.535 C 836.978 226.388 837.053 226.413 837.148 226.266 C 837.243 226.118 837.358 225.799 837.453 225.652 C 837.548 225.505 837.63 225.473 837.719 225.383 C 837.807 225.293 837.896 225.203 837.984 225.113 C 838.073 225.023 838.161 224.934 838.25 224.844 C 838.339 224.754 838.427 224.664 838.516 224.574 C 838.604 224.484 838.693 224.395 838.781 224.305 C 838.87 224.215 838.958 224.08 839.047 224.035 C 839.135 223.99 839.224 224.08 839.312 224.035 C 839.401 223.99 839.49 223.811 839.578 223.766 C 839.667 223.721 839.755 223.766 839.844 223.766 C 839.932 223.766 840.021 223.811 840.109 223.766 C 840.198 223.721 840.286 223.541 840.375 223.496 C 840.464 223.451 840.552 223.496 840.641 223.496 C 840.729 223.496 840.818 223.496 840.906 223.496 C 840.995 223.496 841.083 223.541 841.172 223.496 C 841.26 223.451 841.292 223.271 841.438 223.227 C 841.583 223.182 841.901 223.227 842.047 223.227 C 842.193 223.227 842.224 223.227 842.312 223.227 C 842.401 223.227 842.49 223.227 842.578 223.227 C 842.667 223.227 842.755 223.227 842.844 223.227 C 842.932 223.227 843.021 223.227 843.109 223.227 C 843.198 223.227 843.286 223.227 843.375 223.227 C 843.464 223.227 843.552 223.227 843.641 223.227 C 843.729 223.227 843.821 223.227 843.906 223.227 C 843.992 223.227 844.072 223.227 844.152 223.227 C 844.233 223.227 844.312 223.227 844.391 223.227 C 844.469 223.227 844.583 223.189 844.621 223.227 C 844.66 223.264 844.621 223.415 844.621 223.453 "/>
  <path style="fill: none; stroke-width: 5px; stroke: rgb(30, 30, 30);" d="M 743.484 169.746 C 743.484 169.706 743.523 169.548 743.484 169.508 C 743.446 169.468 743.497 169.661 743.254 169.508 C 743.011 169.354 742.592 168.971 742.027 168.586 C 741.462 168.201 740.572 167.601 739.863 167.195 C 739.155 166.79 738.227 166.428 737.777 166.152 C 737.327 165.876 737.44 165.699 737.164 165.539 C 736.888 165.379 736.34 165.294 736.121 165.191 C 735.902 165.089 735.999 165.018 735.852 164.922 C 735.704 164.826 735.382 164.706 735.238 164.613 C 735.094 164.52 735.075 164.405 734.988 164.363 C 734.902 164.322 734.809 164.363 734.719 164.363 C 734.629 164.363 734.596 164.415 734.449 164.363 C 734.302 164.312 734.04 164.106 733.836 164.055 C 733.632 164.003 733.427 164.106 733.223 164.055 C 733.018 164.003 732.885 163.855 732.609 163.746 C 732.333 163.637 731.914 163.514 731.566 163.398 C 731.219 163.283 730.871 163.167 730.523 163.051 C 730.176 162.935 729.828 162.761 729.48 162.703 C 729.133 162.645 728.785 162.761 728.438 162.703 C 728.09 162.645 727.671 162.413 727.395 162.355 C 727.118 162.298 726.986 162.407 726.781 162.355 C 726.577 162.304 726.372 162.098 726.168 162.047 C 725.964 161.995 725.702 162.047 725.555 162.047 C 725.408 162.047 725.375 162.047 725.285 162.047 C 725.195 162.047 725.105 162.047 725.016 162.047 C 724.926 162.047 724.965 162.047 724.746 162.047 C 724.527 162.047 724.051 162.047 723.703 162.047 C 723.355 162.047 722.936 162.047 722.66 162.047 C 722.384 162.047 722.323 162.047 722.047 162.047 C 721.771 162.047 721.646 162.047 721.004 162.047 C 720.362 162.047 718.837 162.047 718.195 162.047 C 717.553 162.047 717.585 162.047 717.152 162.047 C 716.72 162.047 716.034 161.99 715.602 162.047 C 715.169 162.104 714.906 162.276 714.559 162.391 C 714.211 162.505 713.863 162.62 713.516 162.734 C 713.168 162.849 712.749 162.97 712.473 163.078 C 712.197 163.186 712.007 163.288 711.859 163.383 C 711.712 163.478 711.68 163.56 711.59 163.648 C 711.5 163.737 711.41 163.826 711.32 163.914 C 711.23 164.003 711.096 164.094 711.051 164.18 C 711.006 164.265 711.051 164.344 711.051 164.426 C 711.051 164.508 711.051 164.587 711.051 164.672 C 711.051 164.757 711.051 164.852 711.051 164.938 C 711.051 165.023 711.051 165.098 711.051 165.184 C 711.051 165.269 711.051 165.364 711.051 165.449 C 711.051 165.535 711.092 165.613 711.051 165.695 C 711.009 165.777 710.887 165.856 710.801 165.941 C 710.714 166.027 710.678 166.061 710.531 166.207 C 710.384 166.353 710.065 166.671 709.918 166.816 C 709.771 166.962 709.796 166.936 709.648 167.082 C 709.501 167.228 709.189 167.488 709.035 167.691 C 708.882 167.895 708.823 168.155 708.727 168.301 C 708.63 168.447 708.553 168.421 708.457 168.566 C 708.361 168.712 708.245 169.03 708.148 169.176 C 708.052 169.322 707.924 169.353 707.879 169.441 C 707.834 169.53 707.924 169.618 707.879 169.707 C 707.834 169.796 707.654 169.884 707.609 169.973 C 707.564 170.061 707.609 170.15 707.609 170.238 C 707.609 170.327 707.609 170.42 707.609 170.504 C 707.609 170.588 707.609 170.661 707.609 170.742 C 707.609 170.823 707.654 170.858 707.609 170.988 C 707.564 171.118 707.436 171.333 707.34 171.523 C 707.243 171.714 707.134 171.93 707.031 172.133 C 706.928 172.336 706.832 172.467 706.723 172.742 C 706.613 173.017 706.484 173.507 706.375 173.781 C 706.266 174.056 706.169 174.188 706.066 174.391 C 705.964 174.594 705.861 174.797 705.758 175 C 705.655 175.203 705.501 175.464 705.449 175.609 C 705.398 175.755 705.494 175.786 705.449 175.875 C 705.404 175.964 705.225 176.052 705.18 176.141 C 705.135 176.229 705.18 176.318 705.18 176.406 C 705.18 176.495 705.18 176.583 705.18 176.672 C 705.18 176.76 705.18 176.849 705.18 176.938 C 705.18 177.026 705.18 177.118 705.18 177.203 C 705.18 177.288 705.18 177.307 705.18 177.449 C 705.18 177.592 705.245 177.699 705.18 178.059 C 705.115 178.418 704.912 179.174 704.789 179.605 C 704.666 180.036 704.499 180.298 704.441 180.645 C 704.383 180.991 704.499 181.337 704.441 181.684 C 704.383 182.03 704.152 182.376 704.094 182.723 C 704.036 183.069 704.145 183.487 704.094 183.762 C 704.042 184.036 703.837 184.168 703.785 184.371 C 703.734 184.574 703.785 184.777 703.785 184.98 C 703.785 185.184 703.785 185.444 703.785 185.59 C 703.785 185.736 703.785 185.767 703.785 185.855 C 703.785 185.944 703.785 186.033 703.785 186.121 C 703.785 186.21 703.785 186.301 703.785 186.387 C 703.785 186.472 703.785 186.551 703.785 186.633 C 703.785 186.715 703.785 186.482 703.785 186.879 C 703.785 187.275 703.843 188.483 703.785 189.012 C 703.727 189.54 703.495 189.522 703.438 190.051 C 703.38 190.579 703.495 191.655 703.438 192.184 C 703.38 192.712 703.148 192.792 703.09 193.223 C 703.032 193.654 703.148 194.339 703.09 194.77 C 703.032 195.201 702.8 195.534 702.742 195.809 C 702.684 196.083 702.742 196.215 702.742 196.418 C 702.742 196.621 702.742 196.824 702.742 197.027 C 702.742 197.23 702.742 197.491 702.742 197.637 C 702.742 197.783 702.742 197.814 702.742 197.902 C 702.742 197.991 702.742 198.083 702.742 198.168 C 702.742 198.253 702.742 198.333 702.742 198.414 C 702.742 198.495 702.742 198.439 702.742 198.652 C 702.742 198.865 702.742 199.26 702.742 199.691 C 702.742 200.122 702.742 200.807 702.742 201.238 C 702.742 201.669 702.742 201.931 702.742 202.277 C 702.742 202.624 702.742 202.97 702.742 203.316 C 702.742 203.663 702.742 204.009 702.742 204.355 C 702.742 204.702 702.742 205.12 702.742 205.395 C 702.742 205.669 702.742 205.858 702.742 206.004 C 702.742 206.15 702.742 206.124 702.742 206.27 C 702.742 206.415 702.742 206.733 702.742 206.879 C 702.742 207.025 702.742 207.056 702.742 207.145 C 702.742 207.233 702.742 207.325 702.742 207.41 C 702.742 207.495 702.742 207.576 702.742 207.656 C 702.742 207.737 702.685 207.682 702.742 207.895 C 702.799 208.107 702.971 208.587 703.086 208.934 C 703.201 209.28 703.315 209.626 703.43 209.973 C 703.544 210.319 703.665 210.737 703.773 211.012 C 703.882 211.286 703.97 211.346 704.078 211.621 C 704.186 211.896 704.314 212.385 704.422 212.66 C 704.53 212.935 704.676 213.124 704.727 213.27 C 704.777 213.415 704.676 213.389 704.727 213.535 C 704.777 213.681 704.98 213.999 705.031 214.145 C 705.082 214.29 705.031 214.322 705.031 214.41 C 705.031 214.499 705.031 214.587 705.031 214.676 C 705.031 214.764 704.99 214.856 705.031 214.941 C 705.072 215.027 705.197 215.146 705.277 215.188 C 705.357 215.229 705.432 215.146 705.512 215.188 C 705.592 215.229 705.66 215.219 705.758 215.434 C 705.856 215.648 705.993 216.198 706.102 216.473 C 706.21 216.747 706.298 216.807 706.406 217.082 C 706.514 217.357 706.635 217.775 706.75 218.121 C 706.865 218.467 706.986 218.885 707.094 219.16 C 707.202 219.435 707.297 219.566 707.398 219.77 C 707.5 219.973 707.608 220.233 707.703 220.379 C 707.798 220.525 707.88 220.556 707.969 220.645 C 708.057 220.733 708.139 220.764 708.234 220.91 C 708.329 221.056 708.488 221.374 708.539 221.52 C 708.59 221.665 708.495 221.697 708.539 221.785 C 708.583 221.874 708.722 221.968 708.805 222.051 C 708.887 222.133 708.952 222.199 709.035 222.281 C 709.118 222.364 709.206 222.401 709.301 222.547 C 709.396 222.693 709.504 222.953 709.605 223.156 C 709.707 223.359 709.758 223.562 709.91 223.766 C 710.062 223.969 710.367 224.172 710.52 224.375 C 710.672 224.578 710.729 224.839 710.824 224.984 C 710.919 225.13 711.001 225.161 711.09 225.25 C 711.178 225.339 711.26 225.37 711.355 225.516 C 711.451 225.661 711.565 225.979 711.66 226.125 C 711.755 226.271 711.882 226.302 711.926 226.391 C 711.97 226.479 711.882 226.612 711.926 226.656 C 711.97 226.701 712.147 226.612 712.191 226.656 C 712.236 226.701 712.15 226.878 712.191 226.922 C 712.232 226.966 712.355 226.881 712.438 226.922 C 712.52 226.963 712.598 227.083 712.684 227.168 C 712.769 227.253 712.861 227.345 712.949 227.434 C 713.038 227.522 713.126 227.611 713.215 227.699 C 713.303 227.788 713.392 227.876 713.48 227.965 C 713.569 228.053 713.658 228.142 713.746 228.23 C 713.835 228.319 713.923 228.408 714.012 228.496 C 714.1 228.585 714.189 228.673 714.277 228.762 C 714.366 228.85 714.454 228.939 714.543 229.027 C 714.632 229.116 714.72 229.204 714.809 229.293 C 714.897 229.382 714.986 229.47 715.074 229.559 C 715.163 229.647 715.251 229.736 715.34 229.824 C 715.428 229.913 715.517 230.001 715.605 230.09 C 715.694 230.178 715.783 230.267 715.871 230.355 C 715.96 230.444 716.048 230.533 716.137 230.621 C 716.225 230.71 716.314 230.842 716.402 230.887 C 716.491 230.931 716.579 230.842 716.668 230.887 C 716.757 230.931 716.845 231.064 716.934 231.152 C 717.022 231.241 717.111 231.329 717.199 231.418 C 717.288 231.507 717.376 231.595 717.465 231.684 C 717.553 231.772 717.642 231.861 717.73 231.949 C 717.819 232.038 717.908 232.171 717.996 232.215 C 718.085 232.259 718.173 232.171 718.262 232.215 C 718.35 232.259 718.439 232.436 718.527 232.48 C 718.616 232.525 718.704 232.48 718.793 232.48 C 718.882 232.48 718.97 232.48 719.059 232.48 C 719.147 232.48 719.28 232.436 719.324 232.48 C 719.368 232.525 719.28 232.702 719.324 232.746 C 719.368 232.79 719.505 232.746 719.59 232.746 C 719.675 232.746 719.751 232.702 719.836 232.746 C 719.921 232.79 720.013 232.967 720.102 233.012 C 720.19 233.056 720.279 232.967 720.367 233.012 C 720.456 233.056 720.544 233.233 720.633 233.277 C 720.721 233.322 720.753 233.227 720.898 233.277 C 721.044 233.328 721.305 233.531 721.508 233.582 C 721.711 233.633 721.914 233.531 722.117 233.582 C 722.32 233.633 722.581 233.836 722.727 233.887 C 722.872 233.938 722.846 233.836 722.992 233.887 C 723.138 233.938 723.456 234.141 723.602 234.191 C 723.747 234.242 723.779 234.191 723.867 234.191 C 723.956 234.191 724.044 234.191 724.133 234.191 C 724.221 234.191 724.31 234.191 724.398 234.191 C 724.487 234.191 724.579 234.191 724.664 234.191 C 724.749 234.191 724.828 234.191 724.91 234.191 C 724.992 234.191 725.071 234.191 725.156 234.191 C 725.242 234.191 725.333 234.191 725.422 234.191 C 725.51 234.191 725.599 234.191 725.688 234.191 C 725.776 234.191 725.807 234.191 725.953 234.191 C 726.099 234.191 726.359 234.191 726.562 234.191 C 726.766 234.191 726.969 234.191 727.172 234.191 C 727.375 234.191 727.578 234.191 727.781 234.191 C 727.984 234.191 728.245 234.191 728.391 234.191 C 728.536 234.191 728.568 234.191 728.656 234.191 C 728.745 234.191 728.833 234.191 728.922 234.191 C 729.01 234.191 729.099 234.191 729.188 234.191 C 729.276 234.191 729.365 234.191 729.453 234.191 C 729.542 234.191 729.63 234.191 729.719 234.191 C 729.807 234.191 729.896 234.191 729.984 234.191 C 730.073 234.191 730.161 234.191 730.25 234.191 C 730.339 234.191 730.427 234.191 730.516 234.191 C 730.604 234.191 730.693 234.191 730.781 234.191 C 730.87 234.191 730.958 234.191 731.047 234.191 C 731.135 234.191 731.167 234.191 731.312 234.191 C 731.458 234.191 731.719 234.191 731.922 234.191 C 732.125 234.191 732.385 234.191 732.531 234.191 C 732.677 234.191 732.651 234.191 732.797 234.191 C 732.943 234.191 733.26 234.191 733.406 234.191 C 733.552 234.191 733.583 234.191 733.672 234.191 C 733.76 234.191 733.849 234.191 733.938 234.191 C 734.026 234.191 734.115 234.191 734.203 234.191 C 734.292 234.191 734.38 234.191 734.469 234.191 C 734.557 234.191 734.646 234.191 734.734 234.191 C 734.823 234.191 734.917 234.231 735 234.191 C 735.083 234.152 735.151 233.993 735.234 233.953 C 735.318 233.913 735.415 233.995 735.5 233.953 C 735.585 233.911 735.664 233.745 735.746 233.703 C 735.828 233.661 735.91 233.745 735.992 233.703 C 736.074 233.661 736.156 233.536 736.238 233.453 C 736.32 233.37 736.399 233.245 736.484 233.203 C 736.57 233.161 736.706 233.248 736.75 233.203 C 736.794 233.158 736.706 232.979 736.75 232.934 C 736.794 232.889 736.927 232.934 737.016 232.934 C 737.104 232.934 737.237 232.979 737.281 232.934 C 737.326 232.889 737.237 232.754 737.281 232.664 C 737.326 232.574 737.458 232.439 737.547 232.395 C 737.635 232.35 737.724 232.439 737.812 232.395 C 737.901 232.35 737.99 232.17 738.078 232.125 C 738.167 232.08 738.299 232.17 738.344 232.125 C 738.388 232.08 738.299 231.9 738.344 231.855 C 738.388 231.811 738.521 231.9 738.609 231.855 C 738.698 231.811 738.786 231.676 738.875 231.586 C 738.964 231.496 739.096 231.406 739.141 231.316 C 739.185 231.227 739.096 231.092 739.141 231.047 C 739.185 231.002 739.318 231.092 739.406 231.047 C 739.495 231.002 739.628 230.867 739.672 230.777 C 739.716 230.688 739.628 230.553 739.672 230.508 C 739.716 230.463 739.842 230.61 739.938 230.508 C 740.033 230.406 740.147 230.042 740.242 229.895 C 740.337 229.747 740.419 229.715 740.508 229.625 C 740.596 229.535 740.685 229.445 740.773 229.355 C 740.862 229.266 740.951 229.176 741.039 229.086 C 741.128 228.996 741.216 228.906 741.305 228.816 C 741.393 228.727 741.482 228.637 741.57 228.547 C 741.659 228.457 741.747 228.367 741.836 228.277 C 741.924 228.188 742.013 228.098 742.102 228.008 C 742.19 227.918 742.279 227.828 742.367 227.738 C 742.456 227.648 742.544 227.559 742.633 227.469 C 742.721 227.379 742.854 227.289 742.898 227.199 C 742.943 227.109 742.854 226.975 742.898 226.93 C 742.943 226.885 743.12 226.975 743.164 226.93 C 743.208 226.885 743.164 226.75 743.164 226.66 C 743.164 226.57 743.124 226.476 743.164 226.391 C 743.204 226.305 743.363 226.23 743.402 226.148 C 743.442 226.066 743.352 226.042 743.402 225.898 C 743.453 225.755 743.612 225.432 743.707 225.285 C 743.802 225.138 743.884 225.105 743.973 225.016 C 744.061 224.926 744.194 224.836 744.238 224.746 C 744.283 224.656 744.188 224.624 744.238 224.477 C 744.289 224.329 744.441 224.068 744.543 223.863 C 744.645 223.659 744.746 223.454 744.848 223.25 C 744.949 223.046 745.051 222.841 745.152 222.637 C 745.254 222.432 745.362 222.171 745.457 222.023 C 745.552 221.876 745.634 221.844 745.723 221.754 C 745.811 221.664 745.9 221.574 745.988 221.484 C 746.077 221.395 746.21 221.305 746.254 221.215 C 746.298 221.125 746.254 221.035 746.254 220.945 C 746.254 220.855 746.21 220.721 746.254 220.676 C 746.298 220.631 746.475 220.721 746.52 220.676 C 746.564 220.631 746.52 220.491 746.52 220.406 C 746.52 220.322 746.475 220.253 746.52 220.168 C 746.564 220.083 746.741 219.988 746.785 219.898 C 746.829 219.809 746.734 219.776 746.785 219.629 C 746.836 219.482 746.995 219.163 747.09 219.016 C 747.185 218.868 747.311 218.836 747.355 218.746 C 747.4 218.656 747.311 218.566 747.355 218.477 C 747.4 218.387 747.577 218.297 747.621 218.207 C 747.665 218.117 747.577 218.027 747.621 217.938 C 747.665 217.848 747.842 217.758 747.887 217.668 C 747.931 217.578 747.887 217.484 747.887 217.398 C 747.887 217.313 747.887 217.237 747.887 217.156 C 747.887 217.076 747.887 216.996 747.887 216.914 C 747.887 216.832 747.842 216.751 747.887 216.664 C 747.931 216.577 748.064 216.484 748.152 216.395 C 748.241 216.305 748.374 216.215 748.418 216.125 C 748.462 216.035 748.418 216.003 748.418 215.855 C 748.418 215.708 748.374 215.389 748.418 215.242 C 748.462 215.095 748.639 215.059 748.684 214.973 C 748.728 214.886 748.639 214.764 748.684 214.723 C 748.728 214.681 748.905 214.768 748.949 214.723 C 748.993 214.678 748.949 214.54 748.949 214.453 C 748.949 214.367 748.91 214.285 748.949 214.203 C 748.989 214.121 749.148 214.091 749.188 213.961 C 749.227 213.831 749.143 213.557 749.188 213.422 C 749.232 213.287 749.409 213.242 749.453 213.152 C 749.497 213.062 749.402 213.03 749.453 212.883 C 749.504 212.736 749.707 212.417 749.758 212.27 C 749.809 212.122 749.714 212.09 749.758 212 C 749.802 211.91 749.979 211.82 750.023 211.73 C 750.068 211.641 750.023 211.548 750.023 211.461 C 750.023 211.374 750.023 211.294 750.023 211.211 C 750.023 211.128 749.981 211.132 750.023 210.961 C 750.066 210.79 750.191 210.361 750.277 210.188 C 750.364 210.014 750.499 210.065 750.543 209.918 C 750.587 209.771 750.499 209.452 750.543 209.305 C 750.587 209.158 750.764 209.182 750.809 209.035 C 750.853 208.888 750.809 208.569 750.809 208.422 C 750.809 208.275 750.764 208.242 750.809 208.152 C 750.853 208.062 751.03 207.973 751.074 207.883 C 751.118 207.793 751.074 207.703 751.074 207.613 C 751.074 207.523 751.074 207.434 751.074 207.344 C 751.074 207.254 751.074 207.161 751.074 207.074 C 751.074 206.988 751.03 206.911 751.074 206.824 C 751.118 206.738 751.296 206.702 751.34 206.555 C 751.384 206.408 751.34 206.146 751.34 205.941 C 751.34 205.737 751.289 205.533 751.34 205.328 C 751.391 205.124 751.594 204.919 751.645 204.715 C 751.695 204.51 751.58 204.462 751.645 204.102 C 751.709 203.741 751.967 202.911 752.031 202.551 C 752.096 202.19 751.974 202.214 752.031 201.938 C 752.089 201.661 752.318 201.171 752.375 200.895 C 752.432 200.618 752.375 200.486 752.375 200.281 C 752.375 200.077 752.331 199.815 752.375 199.668 C 752.419 199.521 752.596 199.488 752.641 199.398 C 752.685 199.309 752.641 199.219 752.641 199.129 C 752.641 199.039 752.641 198.949 752.641 198.859 C 752.641 198.77 752.641 198.68 752.641 198.59 C 752.641 198.5 752.641 198.51 752.641 198.32 C 752.641 198.131 752.641 197.7 752.641 197.453 C 752.641 197.206 752.641 197.044 752.641 196.84 C 752.641 196.635 752.641 196.431 752.641 196.227 C 752.641 196.022 752.641 195.76 752.641 195.613 C 752.641 195.466 752.641 195.491 752.641 195.344 C 752.641 195.197 752.641 194.878 752.641 194.73 C 752.641 194.583 752.641 194.551 752.641 194.461 C 752.641 194.371 752.641 194.281 752.641 194.191 C 752.641 194.102 752.641 194.012 752.641 193.922 C 752.641 193.832 752.641 193.739 752.641 193.652 C 752.641 193.566 752.641 193.484 752.641 193.402 C 752.641 193.32 752.641 193.345 752.641 193.16 C 752.641 192.975 752.641 192.482 752.641 192.293 C 752.641 192.104 752.641 192.171 752.641 192.023 C 752.641 191.876 752.641 191.557 752.641 191.41 C 752.641 191.263 752.641 191.23 752.641 191.141 C 752.641 191.051 752.641 191.018 752.641 190.871 C 752.641 190.724 752.641 190.405 752.641 190.258 C 752.641 190.111 752.641 190.075 752.641 189.988 C 752.641 189.902 752.641 189.822 752.641 189.738 C 752.641 189.655 752.641 189.569 752.641 189.488 C 752.641 189.408 752.641 189.333 752.641 189.254 C 752.641 189.175 752.641 189.096 752.641 189.016 C 752.641 188.936 752.641 188.904 752.641 188.773 C 752.641 188.643 752.641 188.369 752.641 188.234 C 752.641 188.1 752.641 188.112 752.641 187.965 C 752.641 187.818 752.641 187.556 752.641 187.352 C 752.641 187.147 752.641 186.885 752.641 186.738 C 752.641 186.591 752.641 186.559 752.641 186.469 C 752.641 186.379 752.641 186.289 752.641 186.199 C 752.641 186.109 752.641 186.02 752.641 185.93 C 752.641 185.84 752.641 185.75 752.641 185.66 C 752.641 185.57 752.641 185.477 752.641 185.391 C 752.641 185.304 752.641 185.221 752.641 185.141 C 752.641 185.06 752.641 184.985 752.641 184.906 C 752.641 184.827 752.682 184.749 752.641 184.668 C 752.599 184.587 752.432 184.501 752.391 184.418 C 752.349 184.335 752.391 184.251 752.391 184.168 C 752.391 184.085 752.436 183.96 752.391 183.918 C 752.346 183.876 752.166 184.02 752.121 183.918 C 752.076 183.816 752.173 183.509 752.121 183.305 C 752.07 183.1 751.864 182.839 751.812 182.691 C 751.761 182.544 751.857 182.512 751.812 182.422 C 751.768 182.332 751.588 182.299 751.543 182.152 C 751.498 182.005 751.543 181.686 751.543 181.539 C 751.543 181.392 751.588 181.359 751.543 181.27 C 751.498 181.18 751.318 181.087 751.273 181 C 751.229 180.913 751.318 180.837 751.273 180.75 C 751.229 180.663 751.049 180.566 751.004 180.48 C 750.959 180.395 751.046 180.279 751.004 180.238 C 750.962 180.198 750.796 180.28 750.754 180.238 C 750.712 180.197 750.805 180.132 750.754 179.988 C 750.702 179.844 750.548 179.579 750.445 179.375 C 750.342 179.171 750.233 178.909 750.137 178.762 C 750.04 178.615 749.912 178.582 749.867 178.492 C 749.822 178.402 749.867 178.312 749.867 178.223 C 749.867 178.133 749.912 178.043 749.867 177.953 C 749.822 177.863 749.643 177.773 749.598 177.684 C 749.553 177.594 749.643 177.459 749.598 177.414 C 749.553 177.369 749.373 177.459 749.328 177.414 C 749.283 177.369 749.373 177.189 749.328 177.145 C 749.283 177.1 749.104 177.185 749.059 177.145 C 749.014 177.104 749.098 176.943 749.059 176.902 C 749.019 176.862 748.86 176.944 748.82 176.902 C 748.781 176.861 748.865 176.694 748.82 176.652 C 748.775 176.611 748.596 176.694 748.551 176.652 C 748.506 176.611 748.596 176.489 748.551 176.402 C 748.506 176.316 748.378 176.28 748.281 176.133 C 748.185 175.986 748.069 175.667 747.973 175.52 C 747.876 175.372 747.793 175.34 747.703 175.25 C 747.613 175.16 747.53 175.128 747.434 174.98 C 747.337 174.833 747.221 174.514 747.125 174.367 C 747.029 174.22 746.945 174.188 746.855 174.098 C 746.766 174.008 746.631 173.918 746.586 173.828 C 746.541 173.738 746.631 173.604 746.586 173.559 C 746.541 173.514 746.361 173.604 746.316 173.559 C 746.271 173.514 746.356 173.374 746.316 173.289 C 746.277 173.204 746.157 173.09 746.078 173.051 C 745.999 173.011 745.883 173.092 745.844 173.051 C 745.805 173.009 745.886 172.927 745.844 172.801 C 745.801 172.674 745.677 172.423 745.59 172.293 C 745.503 172.163 745.417 172.171 745.32 172.023 C 745.224 171.876 745.108 171.557 745.012 171.41 C 744.915 171.263 744.832 171.23 744.742 171.141 C 744.652 171.051 744.518 170.961 744.473 170.871 C 744.428 170.781 744.518 170.691 744.473 170.602 C 744.428 170.512 744.29 170.419 744.203 170.332 C 744.117 170.245 743.995 170.163 743.953 170.082 C 743.911 170.001 743.995 169.887 743.953 169.848 C 743.911 169.809 743.745 169.887 743.703 169.848 C 743.661 169.809 743.748 169.652 743.703 169.613 C 743.658 169.574 743.518 169.613 743.434 169.613 C 743.35 169.613 743.238 169.653 743.199 169.613 C 743.16 169.574 743.238 169.415 743.199 169.375 C 743.16 169.335 743.004 169.417 742.965 169.375 C 742.926 169.333 742.965 169.167 742.965 169.125 "/>
  <text style="fill: rgb(30, 30, 30); font-family: Courier New; font-size: 47.1469px;" data-box-width="566.699" data-box-height="56.7227"><tspan x="138.852" y="499.61" style="text-decoration:;">i will be victorious</tspan></text>
</svg>
